<?xml version="1.0" standalone="no"?>
<!DOCTYPE svg PUBLIC "-//W3C//DTD SVG 20010904//EN"
 "http://www.w3.org/TR/2001/REC-SVG-20010904/DTD/svg10.dtd">
<svg version="1.0" xmlns="http://www.w3.org/2000/svg"
 width="512.000000pt" height="512.000000pt" viewBox="0 0 512.000000 512.000000"
 preserveAspectRatio="xMidYMid meet">
<metadata>
Created by potrace 1.14, written by Peter Selinger 2001-2017
</metadata>
<g transform="translate(0.000000,512.000000) scale(0.100000,-0.100000)"
fill="#000000" stroke="none">
<path d="M1795 3806 c-75 -15 -161 -43 -216 -71 -46 -23 -149 -89 -149 -95 0
-3 101 -106 225 -230 l225 -225 255 255 c140 140 255 258 255 261 0 11 -133
67 -210 89 -97 28 -286 35 -385 16z"/>
<path d="M3015 3809 c-113 -21 -229 -68 -335 -137 -30 -20 -222 -202 -428
-406 l-372 -371 -300 300 c-164 164 -301 297 -303 295 -2 -3 -17 -25 -34 -50
-154 -229 -186 -531 -84 -796 54 -140 108 -207 422 -527 l292 -299 909 909
c499 499 908 910 908 913 0 12 -158 100 -221 124 -138 52 -319 69 -454 45z"/>
<path d="M2932 2587 c-496 -497 -902 -908 -902 -913 0 -6 73 -83 163 -171 190
-187 223 -206 362 -207 94 0 145 13 207 54 60 40 1034 1021 1094 1102 173 236
215 566 104 831 -32 76 -107 207 -118 207 -4 0 -414 -406 -910 -903z"/>
</g>
</svg>
