<svg width="18" height="19" viewBox="0 0 18 19" fill="none" xmlns="http://www.w3.org/2000/svg">
<path d="M4.49956 0.5C4.14451 0.5 3.85669 0.787816 3.85669 1.14287V2.42857H5.14239V1.14287C5.14239 0.787816 4.85457 0.5 4.49956 0.5Z" fill="#2E7CF6"/>
<path d="M13.4996 0.5C13.1445 0.5 12.8567 0.787816 12.8567 1.14287V2.42857H14.1424V1.14287C14.1424 0.787816 13.8546 0.5 13.4996 0.5Z" fill="#2E7CF6"/>
<path d="M16.0714 2.42856H14.1429V5C14.1429 5.35505 13.855 5.64287 13.5 5.64287C13.1449 5.64287 12.8571 5.35505 12.8571 5V2.42856H5.14284V5C5.14284 5.35505 4.85502 5.64287 4.49997 5.64287C4.14492 5.64287 3.8571 5.35505 3.8571 5V2.42856H1.92857C0.863449 2.42856 0 3.29201 0 4.35713V16.5714C0 17.6365 0.863449 18.5 1.92857 18.5H16.0714C17.1365 18.5 18 17.6365 18 16.5714V4.35713C18 3.29201 17.1365 2.42856 16.0714 2.42856ZM16.7143 16.5714C16.7143 16.9265 16.4264 17.2143 16.0714 17.2143H1.92857C1.57352 17.2143 1.2857 16.9265 1.2857 16.5714V8.21427H16.7143V16.5714Z" fill="#2E7CF6"/>
<path d="M5.14366 9.49997H3.85796C3.5029 9.49997 3.21509 9.78779 3.21509 10.1428C3.21509 10.4979 3.5029 10.7857 3.85796 10.7857H5.14366C5.49871 10.7857 5.78653 10.4979 5.78653 10.1428C5.78653 9.78779 5.49871 9.49997 5.14366 9.49997Z" fill="#2E7CF6"/>
<path d="M9.64366 9.49997H8.35796C8.0029 9.49997 7.71509 9.78779 7.71509 10.1428C7.71509 10.4979 8.0029 10.7857 8.35796 10.7857H9.64366C9.99871 10.7857 10.2865 10.4979 10.2865 10.1428C10.2865 9.78779 9.99871 9.49997 9.64366 9.49997Z" fill="#2E7CF6"/>
<path d="M14.1437 9.49997H12.858C12.5029 9.49997 12.2151 9.78779 12.2151 10.1428C12.2151 10.4979 12.5029 10.7857 12.858 10.7857H14.1437C14.4987 10.7857 14.7865 10.4979 14.7865 10.1428C14.7865 9.78779 14.4987 9.49997 14.1437 9.49997Z" fill="#2E7CF6"/>
<path d="M5.14366 12.0714H3.85796C3.5029 12.0714 3.21509 12.3593 3.21509 12.7143C3.21509 13.0694 3.5029 13.3572 3.85796 13.3572H5.14366C5.49871 13.3572 5.78653 13.0694 5.78653 12.7143C5.78653 12.3593 5.49871 12.0714 5.14366 12.0714Z" fill="#2E7CF6"/>
<path d="M9.64366 12.0714H8.35796C8.0029 12.0714 7.71509 12.3593 7.71509 12.7143C7.71509 13.0694 8.0029 13.3572 8.35796 13.3572H9.64366C9.99871 13.3572 10.2865 13.0694 10.2865 12.7143C10.2865 12.3593 9.99871 12.0714 9.64366 12.0714Z" fill="#2E7CF6"/>
<path d="M14.1437 12.0714H12.858C12.5029 12.0714 12.2151 12.3593 12.2151 12.7143C12.2151 13.0694 12.5029 13.3572 12.858 13.3572H14.1437C14.4987 13.3572 14.7865 13.0694 14.7865 12.7143C14.7865 12.3593 14.4987 12.0714 14.1437 12.0714Z" fill="#2E7CF6"/>
<path d="M5.14366 14.6429H3.85796C3.5029 14.6429 3.21509 14.9307 3.21509 15.2857C3.21509 15.6408 3.5029 15.9286 3.85796 15.9286H5.14366C5.49871 15.9286 5.78653 15.6407 5.78653 15.2857C5.78653 14.9306 5.49871 14.6429 5.14366 14.6429Z" fill="#2E7CF6"/>
<path d="M9.64366 14.6429H8.35796C8.0029 14.6429 7.71509 14.9307 7.71509 15.2857C7.71509 15.6408 8.0029 15.9286 8.35796 15.9286H9.64366C9.99871 15.9286 10.2865 15.6408 10.2865 15.2857C10.2865 14.9307 9.99871 14.6429 9.64366 14.6429Z" fill="#2E7CF6"/>
<path d="M14.1437 14.6429H12.858C12.5029 14.6429 12.2151 14.9307 12.2151 15.2857C12.2151 15.6408 12.5029 15.9286 12.858 15.9286H14.1437C14.4987 15.9286 14.7865 15.6408 14.7865 15.2857C14.7865 14.9307 14.4987 14.6429 14.1437 14.6429Z" fill="#2E7CF6"/>
</svg>
