<svg width="20" height="20" viewBox="0 0 20 20" fill="none" xmlns="http://www.w3.org/2000/svg">
<path d="M0.909153 0.909149C1.41123 0.407074 2.22525 0.407074 2.72732 0.909149L19.0908 17.2727C19.5929 17.7748 19.5929 18.5888 19.0908 19.0909C18.5888 19.593 17.7747 19.593 17.2727 19.0909L0.909154 2.72733C0.407081 2.22525 0.40708 1.41122 0.909153 0.909149Z" fill="#D1D1D1"/>
<path d="M19.0907 0.909088C19.5927 1.41116 19.5927 2.22519 19.0907 2.72726L2.72716 19.0908C2.22509 19.5929 1.41106 19.5929 0.908989 19.0908C0.406915 18.5888 0.406915 17.7747 0.908988 17.2727L17.2725 0.909089C17.7746 0.407014 18.5886 0.407012 19.0907 0.909088Z" fill="#D1D1D1"/>
</svg>
