<svg width="23" height="23" viewBox="0 0 23 23" fill="none" xmlns="http://www.w3.org/2000/svg">
<path d="M1.06043 1.06066C1.64622 0.474874 2.59597 0.474874 3.18175 1.06066L22.2736 20.1525C22.8594 20.7383 22.8594 21.6881 22.2736 22.2739C21.6879 22.8597 20.7381 22.8597 20.1523 22.2739L1.06043 3.18198C0.474647 2.59619 0.474647 1.64645 1.06043 1.06066Z" fill="white"/>
<path d="M22.2753 1.06043C22.8611 1.64622 22.8611 2.59597 22.2753 3.18175L3.18339 22.2736C2.59761 22.8594 1.64786 22.8594 1.06207 22.2736C0.476286 21.6879 0.476287 20.7381 1.06207 20.1523L20.154 1.06043C20.7397 0.474647 21.6895 0.474647 22.2753 1.06043Z" fill="white"/>
</svg>
