<svg width="182" height="159" viewBox="0 0 182 159" fill="none" xmlns="http://www.w3.org/2000/svg">
<path d="M22.0886 121.268V145H17.3286V134.902H7.16264V145H2.40264V121.268H7.16264V131.026H17.3286V121.268H22.0886ZM32.3157 130.074V139.186C32.3157 139.821 32.4631 140.285 32.7577 140.58C33.0751 140.852 33.5964 140.988 34.3217 140.988H36.5317V145H33.5397C29.5277 145 27.5217 143.051 27.5217 139.152V130.074H25.2777V126.164H27.5217V121.506H32.3157V126.164H36.5317V130.074H32.3157ZM50.5634 125.892C51.9914 125.892 53.2607 126.209 54.3714 126.844C55.482 127.456 56.3434 128.374 56.9554 129.598C57.59 130.799 57.9074 132.25 57.9074 133.95V145H53.1474V134.596C53.1474 133.1 52.7734 131.955 52.0254 131.162C51.2774 130.346 50.2574 129.938 48.9654 129.938C47.6507 129.938 46.608 130.346 45.8374 131.162C45.0894 131.955 44.7154 133.1 44.7154 134.596V145H39.9554V119.84H44.7154V128.51C45.3274 127.694 46.1434 127.059 47.1634 126.606C48.1834 126.13 49.3167 125.892 50.5634 125.892ZM69.3795 133.1C69.3795 130.765 69.9008 128.68 70.9435 126.844C72.0088 124.985 73.4481 123.546 75.2615 122.526C77.0975 121.483 79.1488 120.962 81.4155 120.962C84.0675 120.962 86.3908 121.642 88.3855 123.002C90.3801 124.362 91.7741 126.243 92.5675 128.646H87.0935C86.5495 127.513 85.7788 126.663 84.7815 126.096C83.8068 125.529 82.6735 125.246 81.3815 125.246C79.9988 125.246 78.7635 125.575 77.6755 126.232C76.6101 126.867 75.7715 127.773 75.1595 128.952C74.5701 130.131 74.2755 131.513 74.2755 133.1C74.2755 134.664 74.5701 136.047 75.1595 137.248C75.7715 138.427 76.6101 139.345 77.6755 140.002C78.7635 140.637 79.9988 140.954 81.3815 140.954C82.6735 140.954 83.8068 140.671 84.7815 140.104C85.7788 139.515 86.5495 138.653 87.0935 137.52H92.5675C91.7741 139.945 90.3801 141.838 88.3855 143.198C86.4135 144.535 84.0901 145.204 81.4155 145.204C79.1488 145.204 77.0975 144.694 75.2615 143.674C73.4481 142.631 72.0088 141.192 70.9435 139.356C69.9008 137.52 69.3795 135.435 69.3795 133.1ZM104.997 145.306C103.184 145.306 101.552 144.909 100.101 144.116C98.6504 143.3 97.5058 142.155 96.6671 140.682C95.8511 139.209 95.4431 137.509 95.4431 135.582C95.4431 133.655 95.8624 131.955 96.7011 130.482C97.5624 129.009 98.7298 127.875 100.203 127.082C101.676 126.266 103.32 125.858 105.133 125.858C106.946 125.858 108.59 126.266 110.063 127.082C111.536 127.875 112.692 129.009 113.531 130.482C114.392 131.955 114.823 133.655 114.823 135.582C114.823 137.509 114.381 139.209 113.497 140.682C112.636 142.155 111.457 143.3 109.961 144.116C108.488 144.909 106.833 145.306 104.997 145.306ZM104.997 141.158C105.858 141.158 106.663 140.954 107.411 140.546C108.182 140.115 108.794 139.481 109.247 138.642C109.7 137.803 109.927 136.783 109.927 135.582C109.927 133.791 109.451 132.42 108.499 131.468C107.57 130.493 106.425 130.006 105.065 130.006C103.705 130.006 102.56 130.493 101.631 131.468C100.724 132.42 100.271 133.791 100.271 135.582C100.271 137.373 100.713 138.755 101.597 139.73C102.504 140.682 103.637 141.158 104.997 141.158ZM117.091 135.514C117.091 133.61 117.465 131.921 118.213 130.448C118.983 128.975 120.015 127.841 121.307 127.048C122.621 126.255 124.083 125.858 125.693 125.858C127.098 125.858 128.322 126.141 129.365 126.708C130.43 127.275 131.28 127.989 131.915 128.85V126.164H136.709V145H131.915V142.246C131.303 143.13 130.453 143.867 129.365 144.456C128.299 145.023 127.064 145.306 125.659 145.306C124.072 145.306 122.621 144.898 121.307 144.082C120.015 143.266 118.983 142.121 118.213 140.648C117.465 139.152 117.091 137.441 117.091 135.514ZM131.915 135.582C131.915 134.426 131.688 133.44 131.235 132.624C130.781 131.785 130.169 131.151 129.399 130.72C128.628 130.267 127.801 130.04 126.917 130.04C126.033 130.04 125.217 130.255 124.469 130.686C123.721 131.117 123.109 131.751 122.633 132.59C122.179 133.406 121.953 134.381 121.953 135.514C121.953 136.647 122.179 137.645 122.633 138.506C123.109 139.345 123.721 139.991 124.469 140.444C125.239 140.897 126.055 141.124 126.917 141.124C127.801 141.124 128.628 140.909 129.399 140.478C130.169 140.025 130.781 139.39 131.235 138.574C131.688 137.735 131.915 136.738 131.915 135.582ZM140.134 135.582C140.134 133.633 140.53 131.933 141.324 130.482C142.117 129.009 143.216 127.875 144.622 127.082C146.027 126.266 147.636 125.858 149.45 125.858C151.784 125.858 153.711 126.447 155.23 127.626C156.771 128.782 157.802 130.414 158.324 132.522H153.19C152.918 131.706 152.453 131.071 151.796 130.618C151.161 130.142 150.368 129.904 149.416 129.904C148.056 129.904 146.979 130.403 146.186 131.4C145.392 132.375 144.996 133.769 144.996 135.582C144.996 137.373 145.392 138.767 146.186 139.764C146.979 140.739 148.056 141.226 149.416 141.226C151.342 141.226 152.6 140.365 153.19 138.642H158.324C157.802 140.682 156.771 142.303 155.23 143.504C153.688 144.705 151.762 145.306 149.45 145.306C147.636 145.306 146.027 144.909 144.622 144.116C143.216 143.3 142.117 142.167 141.324 140.716C140.53 139.243 140.134 137.531 140.134 135.582ZM172.419 125.892C173.847 125.892 175.116 126.209 176.227 126.844C177.338 127.456 178.199 128.374 178.811 129.598C179.446 130.799 179.763 132.25 179.763 133.95V145H175.003V134.596C175.003 133.1 174.629 131.955 173.881 131.162C173.133 130.346 172.113 129.938 170.821 129.938C169.506 129.938 168.464 130.346 167.693 131.162C166.945 131.955 166.571 133.1 166.571 134.596V145H161.811V119.84H166.571V128.51C167.183 127.694 167.999 127.059 169.019 126.606C170.039 126.13 171.172 125.892 172.419 125.892Z" fill="white"/>
<rect x="41" width="100" height="100" rx="12" fill="white"/>
<path d="M63.9485 24.2033L65.3394 23.2999C68.6516 21.1498 72.5017 20.013 76.4731 20.013C79.468 20.013 82.4813 20.6815 85.1873 21.9453L86.923 22.7569L74.7129 34.9665L63.9485 24.2033Z" fill="#20385D"/>
<path d="M61.9913 55.0199C55.1352 48.1569 54.0309 37.3068 59.3641 29.2216L60.2706 27.8475L74.7129 42.291L91.0287 25.9753C94.8987 22.1214 100.037 20 105.5 20C109.51 20 113.392 21.1552 116.728 23.3393L118.11 24.2438L74.6617 67.6895L61.9913 55.0199Z" fill="#2D7BF6"/>
<path d="M90.9939 80.4164C88.9215 80.408 86.8491 79.7219 85.3545 78.3731L85.247 78.2763L78.3262 71.3555L121.773 27.908L122.678 29.2897C127.966 37.3642 126.843 48.1856 120.008 55.0199C120.008 55.0199 96.9703 78.0655 96.8586 78.1768C95.3518 79.6844 93.1726 80.4252 90.9939 80.4164Z" fill="#20385D"/>
</svg>
