<svg width="77" height="75" viewBox="0 0 77 75" fill="none" xmlns="http://www.w3.org/2000/svg">
<rect width="77" height="75" rx="37.5" fill="#1A396A"/>
<path d="M25.8205 28.0176L29.7084 37.3101L40.0547 39.1708L40.0618 39.2293L29.1629 40.641L25.3006 48.6779C24.9178 49.4366 25.0899 50.3655 25.643 51.0106C25.7414 51.0877 25.7813 51.1719 25.8797 51.249C26.4701 51.7116 27.2261 51.8276 27.9325 51.5341L54.5526 41.0026C55.3175 40.702 55.85 39.9547 55.8676 39.1216C55.8852 38.2885 55.4349 37.5121 54.6504 37.1621L28.6112 25.3343C27.8268 24.9843 26.9236 25.1236 26.2855 25.7352C25.6732 26.3141 25.4872 27.227 25.8205 28.0176Z" fill="white"/>
</svg>
