<svg width="20" height="18" viewBox="0 0 20 18" fill="none" xmlns="http://www.w3.org/2000/svg">
<path d="M18.8089 6.84475L2.6724 0.149043C1.9926 -0.133067 1.22459 -0.00896537 0.668142 0.472754C0.111696 0.954551 -0.121038 1.6969 0.0608369 2.41006L1.49713 8.04257H8.5294C8.85299 8.04257 9.11538 8.30491 9.11538 8.62854C9.11538 8.95214 8.85303 9.21452 8.5294 9.21452H1.49713L0.0608369 14.847C-0.121038 15.5602 0.111657 16.3025 0.668142 16.7843C1.22572 17.267 1.99381 17.3896 2.67244 17.108L18.8089 10.4123C19.5436 10.1075 20 9.42397 20 8.62854C20 7.83311 19.5436 7.14956 18.8089 6.84475Z" fill="#D1D1D1"/>
</svg>
