<svg width="30" height="30" viewBox="0 0 30 30" fill="none" xmlns="http://www.w3.org/2000/svg">
<path d="M22.0571 16.8412L16.5243 22.374C13.8728 25.0256 9.57382 25.0256 6.92231 22.374C4.2708 19.7225 4.2708 15.4236 6.92231 12.7721L14.37 5.32441C16.139 3.55539 19.0071 3.55539 20.7762 5.32441C22.5452 7.09343 22.5452 9.96158 20.7762 11.7306L13.0939 19.4129C12.2627 20.244 10.9152 20.244 10.084 19.4129C9.25286 18.5817 9.25286 17.2342 10.084 16.403L15.8515 10.6355C16.1444 10.3427 16.1444 9.86778 15.8515 9.57489C15.5586 9.28199 15.0837 9.28199 14.7908 9.57489L9.02335 15.3424C7.60642 16.7593 7.60642 19.0566 9.02335 20.4736C10.4403 21.8905 12.7376 21.8905 14.1545 20.4736L21.8368 12.7913C24.1916 10.4365 24.1916 6.61856 21.8368 4.26375C19.482 1.90894 15.6641 1.90894 13.3093 4.26375L5.86165 11.7114C2.62435 14.9487 2.62435 20.1974 5.86165 23.4347C9.09895 26.672 14.3477 26.672 17.585 23.4347L23.1178 17.9019C23.4107 17.609 23.4107 17.1341 23.1178 16.8412C22.8249 16.5483 22.35 16.5483 22.0571 16.8412Z" fill="#D1D1D1"/>
</svg>
